{
    "asset" : {
        "generator" : "Khronos glTF Blender I/O v1.8.19",
        "version" : "2.0"
    },
    "scene" : 0,
    "scenes" : [
        {
            "name" : "Scene",
            "nodes" : [
                1,
                3,
                5,
                7,
                9,
                11,
                13,
                15,
                17,
                19,
                21,
                23,
                25,
                27,
                29,
                34
            ]
        }
    ],
    "nodes" : [
        {
            "camera" : 0,
            "name" : "new camera_Orientation",
            "rotation" : [
                -0.7071067690849304,
                0,
                0,
                0.7071067690849304
            ]
        },
        {
            "children" : [
                0
            ],
            "name" : "new camera",
            "rotation" : [
                0.8508013486862183,
                -0.11007073521614075,
                0.19740475714206696,
                0.4743974804878235
            ],
            "translation" : [
                -9.975553512573242,
                -44.75968551635742,
                20.710277557373047
            ]
        },
        {
            "camera" : 1,
            "name" : "new camera.001_Orientation",
            "rotation" : [
                -0.7071067690849304,
                0,
                0,
                0.7071067690849304
            ]
        },
        {
            "children" : [
                2
            ],
            "name" : "new camera.001",
            "rotation" : [
                0.7999992966651917,
                0.19213813543319702,
                -0.3344447612762451,
                0.4595986604690552
            ],
            "translation" : [
                16.064254760742188,
                -46.300453186035156,
                16.98874855041504
            ]
        },
        {
            "camera" : 2,
            "name" : "new camera.002_Orientation",
            "rotation" : [
                -0.7071067690849304,
                0,
                0,
                0.7071067690849304
            ]
        },
        {
            "children" : [
                4
            ],
            "name" : "new camera.002",
            "rotation" : [
                0.457328200340271,
                0.31826817989349365,
                -0.8107565641403198,
                0.1795274019241333
            ],
            "translation" : [
                16.44818878173828,
                -53.62208938598633,
                -9.010760307312012
            ]
        },
        {
            "camera" : 3,
            "name" : "new camera.003_Orientation",
            "rotation" : [
                -0.7071067690849304,
                0,
                0,
                0.7071067690849304
            ]
        },
        {
            "children" : [
                6
            ],
            "name" : "new camera.003",
            "rotation" : [
                0.15095359086990356,
                0.8191592693328857,
                -0.250661164522171,
                0.4933153986930847
            ],
            "translation" : [
                12.950323104858398,
                -6.61832857131958,
                -7.4417948722839355
            ]
        },
        {
            "camera" : 4,
            "name" : "new camera.004_Orientation",
            "rotation" : [
                -0.7071067690849304,
                0,
                0,
                0.7071067690849304
            ]
        },
        {
            "children" : [
                8
            ],
            "name" : "new camera.004",
            "rotation" : [
                0.2547364830970764,
                0.7411060929298401,
                -0.4824221432209015,
                0.39133110642433167
            ],
            "translation" : [
                23.348508834838867,
                -17.217512130737305,
                -16.61012840270996
            ]
        },
        {
            "camera" : 5,
            "name" : "new camera.005_Orientation",
            "rotation" : [
                -0.7071067690849304,
                0,
                0,
                0.7071067690849304
            ]
        },
        {
            "children" : [
                10
            ],
            "name" : "new camera.005",
            "rotation" : [
                0.13574539124965668,
                0.8075928688049316,
                -0.5362610816955566,
                0.20442844927310944
            ],
            "translation" : [
                11.277451515197754,
                -19.24430274963379,
                -21.410612106323242
            ]
        },
        {
            "camera" : 6,
            "name" : "new camera.006_Orientation",
            "rotation" : [
                -0.7071067690849304,
                0,
                0,
                0.7071067690849304
            ]
        },
        {
            "children" : [
                12
            ],
            "name" : "new camera.006",
            "rotation" : [
                0.00215234630741179,
                0.8296211361885071,
                -0.5583136081695557,
                0.003198259975761175
            ],
            "translation" : [
                -1.1549936532974243,
                -19.24430274963379,
                -25.06585121154785
            ]
        },
        {
            "camera" : 7,
            "name" : "new camera.007_Orientation",
            "rotation" : [
                -0.7071067690849304,
                0,
                0,
                0.7071067690849304
            ]
        },
        {
            "children" : [
                14
            ],
            "name" : "new camera.007",
            "rotation" : [
                -0.09065767377614975,
                0.8205515742301941,
                -0.5477520823478699,
                -0.1358083337545395
            ],
            "translation" : [
                -9.669154167175293,
                -19.24430274963379,
                -23.839693069458008
            ]
        },
        {
            "camera" : 8,
            "name" : "new camera.008_Orientation",
            "rotation" : [
                -0.7071067690849304,
                0,
                0,
                0.7071067690849304
            ]
        },
        {
            "children" : [
                16
            ],
            "name" : "new camera.008",
            "rotation" : [
                -0.19529938697814941,
                0.7828546166419983,
                -0.5085328221321106,
                -0.3006512522697449
            ],
            "translation" : [
                -19.930774688720703,
                -17.478010177612305,
                -17.862104415893555
            ]
        },
        {
            "camera" : 9,
            "name" : "new camera.009_Orientation",
            "rotation" : [
                -0.7071067690849304,
                0,
                0,
                0.7071067690849304
            ]
        },
        {
            "children" : [
                18
            ],
            "name" : "new camera.009",
            "rotation" : [
                0.3253960907459259,
                -0.668214738368988,
                0.4132705330848694,
                0.5261310338973999
            ],
            "translation" : [
                -27.28268814086914,
                -15.892802238464355,
                -4.356892108917236
            ]
        },
        {
            "camera" : 10,
            "name" : "new camera.010_Orientation",
            "rotation" : [
                -0.7071067690849304,
                0,
                0,
                0.7071067690849304
            ]
        },
        {
            "children" : [
                20
            ],
            "name" : "new camera.010",
            "rotation" : [
                0.43104487657546997,
                -0.45322519540786743,
                0.26638907194137573,
                0.7333648800849915
            ],
            "translation" : [
                -26.61484718322754,
                -15.478572845458984,
                12.836920738220215
            ]
        },
        {
            "camera" : 11,
            "name" : "new camera.011_Orientation",
            "rotation" : [
                -0.7071067690849304,
                0,
                0,
                0.7071067690849304
            ]
        },
        {
            "children" : [
                22
            ],
            "name" : "new camera.011",
            "rotation" : [
                0.47135499119758606,
                -0.21952277421951294,
                0.12239968776702881,
                0.8453712463378906
            ],
            "translation" : [
                -13.44324016571045,
                -11.650829315185547,
                24.96933364868164
            ]
        },
        {
            "camera" : 12,
            "name" : "new camera.012_Orientation",
            "rotation" : [
                -0.7071067690849304,
                0,
                0,
                0.7071067690849304
            ]
        },
        {
            "children" : [
                24
            ],
            "name" : "new camera.012",
            "rotation" : [
                0.42903366684913635,
                0.22578732669353485,
                -0.11167177557945251,
                0.8674559593200684
            ],
            "translation" : [
                11.995387077331543,
                -9.558646202087402,
                24.113155364990234
            ]
        },
        {
            "camera" : 13,
            "name" : "new camera.013_Orientation",
            "rotation" : [
                -0.7071067690849304,
                0,
                0,
                0.7071067690849304
            ]
        },
        {
            "children" : [
                26
            ],
            "name" : "new camera.013",
            "rotation" : [
                0.15913917124271393,
                0.8277236819267273,
                -0.4525986909866333,
                0.29103755950927734
            ],
            "translation" : [
                13.99963665008545,
                -14.4120512008667,
                -16.36192512512207
            ]
        },
        {
            "camera" : 14,
            "name" : "new camera.014_Orientation",
            "rotation" : [
                -0.7071067690849304,
                0,
                0,
                0.7071067690849304
            ]
        },
        {
            "children" : [
                28
            ],
            "name" : "new camera.014",
            "rotation" : [
                0.5006349682807922,
                0.19338592886924744,
                -0.11583715677261353,
                0.8357920050621033
            ],
            "translation" : [
                11.103087425231934,
                -18.22907829284668,
                22.621318817138672
            ]
        },
        {
            "mesh" : 0,
            "name" : "default-retopo 3_Default Material1_0"
        },
        {
            "children" : [
                30
            ],
            "name" : "default-retopo 3",
            "scale" : [
                1.6930510997772217,
                1.6930510997772217,
                1.6930510997772217
            ],
            "translation" : [
                0,
                -38.532222747802734,
                0
            ]
        },
        {
            "children" : [
                31
            ],
            "name" : "RootNode"
        },
        {
            "children" : [
                32
            ],
            "name" : "c1fb4d79ca47478a9f03a6dfb7de0d99.fbx",
            "rotation" : [
                0.7071068286895752,
                0,
                0,
                0.7071068286895752
            ]
        },
        {
            "children" : [
                33
            ],
            "name" : "Sketchfab_model",
            "rotation" : [
                -0.7071068286895752,
                0,
                0,
                0.7071068286895752
            ]
        }
    ],
    "cameras": [
      {
        "perspective": {
          "aspectRatio": 1.0,
          "yfov": 45.0,
          "zfar": 100.0,
          "znear": 0.10000000149011612
        },
        "type": "perspective"
      },
      {
        "perspective": {
          "aspectRatio": 1.0,
          "yfov": 45.0,
          "zfar": 100.0,
          "znear": 0.10000000149011612
        },
        "type": "perspective"
      },
      {
        "perspective": {
          "aspectRatio": 1.0,
          "yfov": 45.0,
          "zfar": 100.0,
          "znear": 0.10000000149011612
        },
        "type": "perspective"
      },
      {
        "perspective": {
          "aspectRatio": 1.0,
          "yfov": 45.0,
          "zfar": 100.0,
          "znear": 0.10000000149011612
        },
        "type": "perspective"
      },
      {
        "perspective": {
          "aspectRatio": 1.0,
          "yfov": 45.0,
          "zfar": 100.0,
          "znear": 0.10000000149011612
        },
        "type": "perspective"
      },
      {
        "perspective": {
          "aspectRatio": 1.0,
          "yfov": 45.0,
          "zfar": 100.0,
          "znear": 0.10000000149011612
        },
        "type": "perspective"
      },
      {
        "perspective": {
          "aspectRatio": 1.0,
          "yfov": 45.0,
          "zfar": 100.0,
          "znear": 0.10000000149011612
        },
        "type": "perspective"
      },
      {
        "perspective": {
          "aspectRatio": 1.0,
          "yfov": 45.0,
          "zfar": 100.0,
          "znear": 0.10000000149011612
        },
        "type": "perspective"
      },
      {
        "perspective": {
          "aspectRatio": 1.0,
          "yfov": 45.0,
          "zfar": 100.0,
          "znear": 0.10000000149011612
        },
        "type": "perspective"
      },
      {
        "perspective": {
          "aspectRatio": 1.0,
          "yfov": 45.0,
          "zfar": 100.0,
          "znear": 0.10000000149011612
        },
        "type": "perspective"
      },
      {
        "perspective": {
          "aspectRatio": 1.0,
          "yfov": 45.0,
          "zfar": 100.0,
          "znear": 0.10000000149011612
        },
        "type": "perspective"
      },
      {
        "perspective": {
          "aspectRatio": 1.0,
          "yfov": 45.0,
          "zfar": 100.0,
          "znear": 0.10000000149011612
        },
        "type": "perspective"
      },
      {
        "perspective": {
          "aspectRatio": 1.0,
          "yfov": 45.0,
          "zfar": 100.0,
          "znear": 0.10000000149011612
        },
        "type": "perspective"
      },
      {
        "perspective": {
          "aspectRatio": 1.0,
          "yfov": 45.0,
          "zfar": 100.0,
          "znear": 0.10000000149011612
        },
        "type": "perspective"
      },
      {
        "perspective": {
          "aspectRatio": 1.0,
          "yfov": 45.0,
          "zfar": 100.0,
          "znear": 0.10000000149011612
        },
        "type": "perspective"
      }
    ],
    "materials" : [
        {
            "alphaMode" : "BLEND",
            "doubleSided" : true,
            "name" : "sphere1:pSphere1SG",
            "pbrMetallicRoughness" : {
                "baseColorFactor" : [
                    0.5,
                    0.5,
                    0.5,
                    1
                ],
                "metallicFactor" : 0
            }
        }
    ],
    "meshes" : [
        {
            "name" : "sphere",
            "primitives" : [
                {
                    "attributes" : {
                        "POSITION" : 0,
                        "NORMAL" : 1,
                        "TEXCOORD_0" : 2
                    },
                    "indices" : 3,
                    "material" : 0
                }
            ]
        }
    ],
    "accessors" : [
        {
            "bufferView" : 0,
            "componentType" : 5126,
            "count" : 6473,
            "max" : [
                1.9187569618225098,
                6.228359222412109,
                5.016472816467285
            ],
            "min" : [
                -8.578362464904785,
                -4.268762111663818,
                -5.6679840087890625
            ],
            "type" : "VEC3"
        },
        {
            "bufferView" : 1,
            "componentType" : 5126,
            "count" : 6473,
            "type" : "VEC3"
        },
        {
            "bufferView" : 2,
            "componentType" : 5126,
            "count" : 6473,
            "type" : "VEC2"
        },
        {
            "bufferView" : 3,
            "componentType" : 5123,
            "count" : 37440,
            "type" : "SCALAR"
        }
    ],
    "bufferViews" : [
        {
            "buffer" : 0,
            "byteLength" : 77676,
            "byteOffset" : 0
        },
        {
            "buffer" : 0,
            "byteLength" : 77676,
            "byteOffset" : 77676
        },
        {
            "buffer" : 0,
            "byteLength" : 51784,
            "byteOffset" : 155352
        },
        {
            "buffer" : 0,
            "byteLength" : 74880,
            "byteOffset" : 207136
        }
    ],
    "buffers" : [
        {
            "byteLength" : 282016,
            "uri" : "data:application/octet-stream;base64,"
        }
    ]
}
