{
  "accessors": [
    {
      "bufferView": 0,
      "componentType": 5126,
      "count": 6912,
      "max": [
        74.60099792480469,
        69.35979461669922,
        20.798799514770508
      ],
      "min": [
        14.704801559448242,
        9.463600158691406,
        0.019300000742077827
      ],
      "type": "VEC3"
    },
    {
      "bufferView": 1,
      "componentType": 5125,
      "count": 6912,
      "type": "SCALAR"
    },
    {
      "bufferView": 2,
      "componentType": 5126,
      "count": 6912,
      "type": "VEC3"
    },
    {
      "bufferView": 2,
      "byteOffset": 12,
      "componentType": 5126,
      "count": 6912,
      "type": "VEC3"
    },
    {
      "bufferView": 2,
      "byteOffset": 24,
      "componentType": 5126,
      "count": 6912,
      "type": "VEC2"
    },
    {
      "bufferView": 3,
      "componentType": 5126,
      "count": 6912,
      "type": "VEC2"
    },
    {
      "bufferView": 4,
      "componentType": 5126,
      "count": 21228,
      "max": [
        89.30580139160156,
        84.32499694824219,
        10.491999626159668
      ],
      "min": [
        0.0,
        8.226394653320313,
        0.0
      ],
      "type": "VEC3"
    },
    {
      "bufferView": 5,
      "componentType": 5125,
      "count": 21228,
      "type": "SCALAR"
    },
    {
      "bufferView": 6,
      "componentType": 5126,
      "count": 21228,
      "type": "VEC3"
    },
    {
      "bufferView": 6,
      "byteOffset": 12,
      "componentType": 5126,
      "count": 21228,
      "type": "VEC3"
    },
    {
      "bufferView": 6,
      "byteOffset": 24,
      "componentType": 5126,
      "count": 21228,
      "type": "VEC2"
    },
    {
      "bufferView": 7,
      "componentType": 5126,
      "count": 21228,
      "type": "VEC2"
    },
    {
      "bufferView": 8,
      "componentType": 5126,
      "count": 768,
      "max": [
        55.96659851074219,
        50.72539520263672,
        21.226600646972656
      ],
      "min": [
        33.339202880859375,
        28.097997665405273,
        11.378800392150879
      ],
      "type": "VEC3"
    },
    {
      "bufferView": 9,
      "componentType": 5125,
      "count": 768,
      "type": "SCALAR"
    },
    {
      "bufferView": 10,
      "componentType": 5126,
      "count": 768,
      "type": "VEC3"
    },
    {
      "bufferView": 10,
      "byteOffset": 12,
      "componentType": 5126,
      "count": 768,
      "type": "VEC3"
    },
    {
      "bufferView": 10,
      "byteOffset": 24,
      "componentType": 5126,
      "count": 768,
      "type": "VEC2"
    },
    {
      "bufferView": 11,
      "componentType": 5126,
      "count": 768,
      "type": "VEC2"
    },
    {
      "bufferView": 12,
      "componentType": 5126,
      "count": 15954,
      "max": [
        83.98789978027344,
        78.7334976196289,
        97.53809356689453
      ],
      "min": [
        5.317901611328125,
        0.0,
        18.13559913635254
      ],
      "type": "VEC3"
    },
    {
      "bufferView": 13,
      "componentType": 5125,
      "count": 15954,
      "type": "SCALAR"
    },
    {
      "bufferView": 14,
      "componentType": 5126,
      "count": 15954,
      "type": "VEC3"
    },
    {
      "bufferView": 14,
      "byteOffset": 12,
      "componentType": 5126,
      "count": 15954,
      "type": "VEC3"
    },
    {
      "bufferView": 14,
      "byteOffset": 24,
      "componentType": 5126,
      "count": 15954,
      "type": "VEC2"
    },
    {
      "bufferView": 15,
      "componentType": 5126,
      "count": 15954,
      "type": "VEC2"
    },
    {
      "bufferView": 16,
      "componentType": 5126,
      "count": 2880,
      "max": [
        72.4917984008789,
        67.25059509277344,
        13.399800300598145
      ],
      "min": [
        16.814001083374023,
        11.572797775268555,
        4.342599868774414
      ],
      "type": "VEC3"
    },
    {
      "bufferView": 17,
      "componentType": 5125,
      "count": 2880,
      "type": "SCALAR"
    },
    {
      "bufferView": 18,
      "componentType": 5126,
      "count": 2880,
      "type": "VEC3"
    },
    {
      "bufferView": 18,
      "byteOffset": 12,
      "componentType": 5126,
      "count": 2880,
      "type": "VEC3"
    },
    {
      "bufferView": 18,
      "byteOffset": 24,
      "componentType": 5126,
      "count": 2880,
      "type": "VEC2"
    },
    {
      "bufferView": 19,
      "componentType": 5126,
      "count": 2880,
      "type": "VEC2"
    }
  ],
  "asset": {
    "version": "2.0"
  },
  "bufferViews": [
    {
      "buffer": 0,
      "byteLength": 82944,
      "byteOffset": 489960,
      "target": 34962
    },
    {
      "buffer": 1,
      "byteLength": 27648,
      "byteOffset": 163320,
      "target": 34963
    },
    {
      "buffer": 2,
      "byteLength": 221184,
      "byteOffset": 1306560,
      "byteStride": 32,
      "target": 34962
    },
    {
      "buffer": 3,
      "byteLength": 55296,
      "byteOffset": 326640,
      "target": 34962
    },
    {
      "buffer": 0,
      "byteLength": 254736,
      "byteOffset": 235224,
      "target": 34962
    },
    {
      "buffer": 1,
      "byteLength": 84912,
      "byteOffset": 78408,
      "target": 34963
    },
    {
      "buffer": 2,
      "byteLength": 679296,
      "byteOffset": 627264,
      "byteStride": 32,
      "target": 34962
    },
    {
      "buffer": 3,
      "byteLength": 169824,
      "byteOffset": 156816,
      "target": 34962
    },
    {
      "buffer": 0,
      "byteLength": 9216,
      "byteOffset": 226008,
      "target": 34962
    },
    {
      "buffer": 1,
      "byteLength": 3072,
      "byteOffset": 75336,
      "target": 34963
    },
    {
      "buffer": 2,
      "byteLength": 24576,
      "byteOffset": 602688,
      "byteStride": 32,
      "target": 34962
    },
    {
      "buffer": 3,
      "byteLength": 6144,
      "byteOffset": 150672,
      "target": 34962
    },
    {
      "buffer": 0,
      "byteLength": 191448,
      "byteOffset": 34560,
      "target": 34962
    },
    {
      "buffer": 1,
      "byteLength": 63816,
      "byteOffset": 11520,
      "target": 34963
    },
    {
      "buffer": 2,
      "byteLength": 510528,
      "byteOffset": 92160,
      "byteStride": 32,
      "target": 34962
    },
    {
      "buffer": 3,
      "byteLength": 127632,
      "byteOffset": 23040,
      "target": 34962
    },
    {
      "buffer": 0,
      "byteLength": 34560,
      "target": 34962
    },
    {
      "buffer": 1,
      "byteLength": 11520,
      "target": 34963
    },
    {
      "buffer": 2,
      "byteLength": 92160,
      "byteStride": 32,
      "target": 34962
    },
    {
      "buffer": 3,
      "byteLength": 23040,
      "target": 34962
    }
  ],
  "buffers": [
    {
      "byteLength": 572904,
      "uri": "data:application/octet-stream;base64,"
    },
    {
      "byteLength": 190968,
      "uri": "data:application/octet-stream;base64,"
    },
    {
      "byteLength": 1527744,
      "uri": "data:application/octet-stream;base64,"
    },
    {
      "byteLength": 381936,
      "uri": "data:application/octet-stream;base64,"
    }
  ],
  "cameras": [
    {
      "perspective": {
        "aspectRatio": 1.0,
        "yfov": 40.0,
        "zfar": 43.07728958129883,
        "znear": 0.004307728726416826
      },
      "type": "perspective"
    }
  ],
  "materials": [
    {},
    {},
    {},
    {},
    {}
  ],
  "meshes": [
    {
      "primitives": [
        {
          "attributes": {
            "NORMAL": 2,
            "POSITION": 0,
            "TANGENT": 3,
            "TEXCOORD_0": 4,
            "TEXCOORD_1": 5
          },
          "indices": 1,
          "material": 0,
          "mode": 4
        }
      ]
    },
    {
      "primitives": [
        {
          "attributes": {
            "NORMAL": 8,
            "POSITION": 6,
            "TANGENT": 9,
            "TEXCOORD_0": 10,
            "TEXCOORD_1": 11
          },
          "indices": 7,
          "material": 1,
          "mode": 4
        }
      ]
    },
    {
      "primitives": [
        {
          "attributes": {
            "NORMAL": 14,
            "POSITION": 12,
            "TANGENT": 15,
            "TEXCOORD_0": 16,
            "TEXCOORD_1": 17
          },
          "indices": 13,
          "material": 2,
          "mode": 4
        }
      ]
    },
    {
      "primitives": [
        {
          "attributes": {
            "NORMAL": 20,
            "POSITION": 18,
            "TANGENT": 21,
            "TEXCOORD_0": 22,
            "TEXCOORD_1": 23
          },
          "indices": 19,
          "material": 3,
          "mode": 4
        }
      ]
    },
    {
      "primitives": [
        {
          "attributes": {
            "NORMAL": 26,
            "POSITION": 24,
            "TANGENT": 27,
            "TEXCOORD_0": 28,
            "TEXCOORD_1": 29
          },
          "indices": 25,
          "material": 4,
          "mode": 4
        }
      ]
    }
  ],
  "nodes": [
    {
      "camera": 0,
      "rotation": [
        -0.10310032218694687,
        -0.0025285331066697836,
        -0.00026189436903223395,
        0.9946677684783936
      ],
      "scale": [
        1.0,
        1.0,
        1.0
      ],
      "translation": [
        -42.3977165222168,
        4.37734317779541,
        46.48072052001953
      ]
    },
    {
      "mesh": 0,
      "name": "Object_6",
      "rotation": [
        0.0,
        0.0,
        0.0,
        1.0
      ],
      "scale": [
        1.0,
        1.0,
        1.0
      ],
      "translation": [
        0.0,
        0.0,
        0.0
      ]
    },
    {
      "mesh": 1,
      "name": "Object_5",
      "rotation": [
        0.0,
        0.0,
        0.0,
        1.0
      ],
      "scale": [
        1.0,
        1.0,
        1.0
      ],
      "translation": [
        0.0,
        0.0,
        0.0
      ]
    },
    {
      "mesh": 2,
      "name": "Object_4",
      "rotation": [
        0.0,
        0.0,
        0.0,
        1.0
      ],
      "scale": [
        1.0,
        1.0,
        1.0
      ],
      "translation": [
        0.0,
        0.0,
        0.0
      ]
    },
    {
      "mesh": 3,
      "name": "Object_3",
      "rotation": [
        0.0,
        0.0,
        0.0,
        1.0
      ],
      "scale": [
        1.0,
        1.0,
        1.0
      ],
      "translation": [
        0.0,
        0.0,
        0.0
      ]
    },
    {
      "mesh": 4,
      "name": "Object_2",
      "rotation": [
        0.0,
        0.0,
        0.0,
        1.0
      ],
      "scale": [
        1.0,
        1.0,
        1.0
      ],
      "translation": [
        0.0,
        0.0,
        0.0
      ]
    },
    {
      "children": [
        5,
        4,
        3,
        2,
        1
      ],
      "name": "lowagain.obj.cleaner.gles",
      "rotation": [
        0.0,
        0.0,
        0.0,
        1.0
      ],
      "scale": [
        0.05000000074505806,
        0.05000000074505806,
        0.05000000074505806
      ],
      "translation": [
        -44.65290069580078,
        -39.41169738769531,
        0.0
      ]
    },
    {
      "children": [
        6
      ],
      "name": "Sketchfab_model",
      "rotation": [
        -0.7071067690849304,
        0.0,
        0.0,
        0.7071067690849304
      ],
      "scale": [
        1.0,
        1.0,
        1.0
      ],
      "translation": [
        0.0,
        0.0,
        0.0
      ]
    }
  ],
  "scenes": [
    {
      "nodes": [
        7,
        0
      ]
    }
  ]
}
